<svg width="151" height="136" viewBox="0 0 151 136" fill="none" xmlns="http://www.w3.org/2000/svg">
<path d="M39.5147 129.923L38.7197 131.195L39.5147 129.923L38.1427 129.065C37.9421 128.94 37.8568 128.691 37.9384 128.469L40.1631 122.414L38.7551 121.896L40.1631 122.414C40.2757 122.107 40.6472 121.989 40.9161 122.174L44.8955 124.916C45.1651 125.102 45.1864 125.493 44.9385 125.707L40.1064 129.877C39.9405 130.021 39.7006 130.039 39.5147 129.923Z" fill="#D5D5D5" stroke="black" stroke-width="3"/>
<path d="M106.378 130.074L107.193 131.333L106.378 130.074L105.02 130.954C104.821 131.083 104.56 131.054 104.393 130.886L99.8507 126.306L98.7857 127.362L99.8507 126.306C99.6208 126.074 99.6712 125.688 99.953 125.522L104.123 123.079C104.405 122.914 104.768 123.06 104.857 123.375L106.587 129.519C106.647 129.73 106.562 129.955 106.378 130.074Z" fill="#D5D5D5" stroke="black" stroke-width="3"/>
<rect x="39.2602" y="34.3757" width="14" height="8" transform="rotate(53.017 39.2602 34.3757)" fill="#E9D500" stroke="black" stroke-width="3"/>
<rect x="114.339" y="38.8581" width="14" height="8" transform="rotate(123.913 114.339 38.8581)" fill="#E9D500" stroke="black" stroke-width="3"/>
<path d="M73.4702 132.976C102.517 132.976 126.47 111.477 126.47 84.4763C126.47 57.476 102.517 35.9763 73.4702 35.9763C44.4238 35.9763 20.4702 57.476 20.4702 84.4763C20.4702 111.477 44.4238 132.976 73.4702 132.976Z" fill="#FF5454" stroke="black" stroke-width="5"/>
<path d="M113.47 84.9763C113.47 105.878 95.4258 122.976 72.9702 122.976C50.5146 122.976 32.4702 105.878 32.4702 84.9763C32.4702 64.0749 50.5146 46.9763 72.9702 46.9763C95.4258 46.9763 113.47 64.0749 113.47 84.9763Z" fill="white" stroke="black" stroke-width="3"/>
<path d="M73.2194 62.4763C73.2194 62.4763 79.7195 85.4763 76.2505 87.9763C74.1691 89.4763 72.7195 89.4763 70.1883 87.9763C66.2195 83.4763 73.2194 62.4763 73.2194 62.4763Z" fill="#AFBB00"/>
<path d="M111.094 85.7255C111.094 85.7255 75.5943 92.3133 71.7254 88.8539C69.404 86.7782 69.4004 85.3286 71.7104 82.7917C78.6492 78.8057 111.094 85.7255 111.094 85.7255Z" fill="#AFBB00"/>
<path d="M24.7395 18.1302C31.408 14.2006 37.0478 12.8941 41.7109 12.9992C46.3752 13.1042 50.2446 14.6256 53.3645 16.6393C56.501 18.6638 58.8657 21.1789 60.4534 23.2109C60.8879 23.7669 61.261 24.2827 61.5727 24.7367L17.5397 54.0921C17.1387 53.5198 16.6747 52.8215 16.1858 52.0157C14.693 49.5547 13.0176 46.1701 12.159 42.3638C11.3044 38.5751 11.2744 34.4492 12.9536 30.3742C14.6278 26.3112 18.1082 22.0379 24.7395 18.1302Z" fill="#FFD500" stroke="black" stroke-width="5"/>
<path d="M123.346 17.3732C129.707 21.7835 133.255 26.3579 135.112 30.6365C136.97 34.9162 137.209 39.0672 136.686 42.7436C136.161 46.4395 134.867 49.6402 133.687 51.9328C133.364 52.5602 133.052 53.1149 132.77 53.5882L87.6741 25.8932C88.0258 25.2895 88.4657 24.5757 88.9928 23.7944C90.6025 21.4082 92.9745 18.4695 96.0716 16.096C99.1542 13.7335 102.889 11.9787 107.292 11.7972C111.683 11.6163 117.021 12.9876 123.346 17.3732Z" fill="#FFD500" stroke="black" stroke-width="5"/>
</svg>
