<svg width="285" height="226" viewBox="0 0 285 226" fill="none" xmlns="http://www.w3.org/2000/svg">
<mask id="mask0_7_54" style="mask-type:alpha" maskUnits="userSpaceOnUse" x="-58" y="0" width="343" height="329">
<path d="M113.032 327.842C206.898 327.842 283.063 254.852 283.063 164.727C283.063 74.6025 206.898 1.61255 113.032 1.61255C19.1655 1.61255 -57 74.6025 -57 164.727C-57 254.852 19.1655 327.842 113.032 327.842Z" fill="#7CAEFF" stroke="black" stroke-width="2"/>
</mask>
<g mask="url(#mask0_7_54)">
<path d="M328.378 137.353C328.378 241.437 242.572 325.842 136.689 325.842C30.8062 325.842 -55 241.437 -55 137.353C-55 33.2685 30.8062 -51.1367 136.689 -51.1367C242.572 -51.1367 328.378 33.2685 328.378 137.353Z" fill="#6DAAFF" stroke="black" stroke-width="2"/>
<path d="M12.7366 6.07091L-84.9351 51.2187L-105.283 75.8789C-105.283 75.8789 -70.7991 111.535 -37.2451 103.546C-3.69102 95.5582 10.3358 139.146 -1.00066 142.642C-12.3371 146.138 -16.2615 160.836 -8.63107 164.295C-1.00066 167.753 15.662 154.07 28.2492 164.295C40.8365 174.52 43.9214 184.049 46.0535 195.571C48.1857 207.093 32.9542 215.1 28.2492 229.253C23.5442 243.407 14.2601 254.872 30.1568 270.755C46.0535 286.637 61.3143 287.051 67.673 297.219C74.0316 307.388 74.0316 343.533 74.0316 343.533L86.749 371.802L101.374 347.743L135.075 316.466C135.075 316.466 151.507 292.257 156.694 270.755C161.882 249.252 169.231 237.618 156.694 226.246C144.158 214.875 132.338 206.398 105.825 200.984C79.3117 195.571 75.2362 186.906 74.0316 174.52C72.8271 162.133 75.3034 142.642 90.5642 142.642C105.825 142.642 127.105 111.535 117.906 103.546C108.708 95.5582 120.813 51.463 125.568 37.6292C130.324 23.7954 98.3331 -3.43982 98.3331 -3.43982L12.7366 6.07091Z" fill="#2BA019" stroke="black" stroke-width="2"/>
<path d="M265.632 54.2389L219.375 -0.231567L199.921 70.2343C199.921 70.2343 195.598 88.3911 202.515 106.116C209.432 123.84 167.499 129.892 173.551 145.455C179.603 161.018 199.489 157.128 209.432 145.455C219.375 133.783 241.423 123.408 245.314 129.892C249.204 136.377 238.397 135.945 240.558 145.455C242.72 154.966 294.596 140.268 294.596 140.268L265.632 54.2389Z" fill="#2BA019" stroke="black" stroke-width="2"/>
<path d="M186.321 119.466C185.456 122.06 181.133 126.815 175.946 124.221C170.758 121.627 173.352 112.117 175.946 108.226C178.539 104.335 172.055 100.012 167.3 94.3921C162.544 88.7721 167.3 87.0429 172.487 85.746C177.675 84.449 173.784 93.0952 180.269 98.7151C186.753 104.335 187.186 116.872 186.321 119.466Z" fill="#2BA019" stroke="black" stroke-width="2"/>
<path d="M288.548 218.333V164.727C288.548 164.727 267.365 159.539 254.396 164.727C241.426 169.915 236.239 169.482 220.243 173.373C204.248 177.264 209.003 178.561 205.545 195.421C202.087 212.281 215.056 220.927 220.243 228.708C225.431 236.49 233.213 249.891 225.431 261.131C217.649 272.371 220.243 308.685 220.243 308.685L238.833 297.877L288.548 218.333Z" fill="#2BA019" stroke="black" stroke-width="2"/>
<path d="M200.79 180.29C199.925 179.426 198.196 180.29 198.196 182.019C198.196 183.749 198.196 185.91 196.034 188.504C193.873 191.098 202.086 188.936 200.79 186.775C199.493 184.613 201.654 181.155 200.79 180.29Z" fill="#2BA019" stroke="black" stroke-width="2"/>
</g>
</svg>
