<svg width="488" height="310" viewBox="0 0 488 310" fill="none" xmlns="http://www.w3.org/2000/svg">
<path d="M457.007 322.319H160.153H-3.38385V118.964C-3.38385 118.964 -22.2261 70.9699 36.7893 48.217C95.8047 25.464 100.782 59.2379 100.782 59.2379C100.782 59.2379 136.333 30.4412 189.305 32.2188C242.277 33.9964 217.746 105.099 217.746 105.099C217.746 105.099 235.522 76.3027 284.227 85.9015C332.933 95.5003 304.847 158.782 304.847 158.782C304.847 158.782 356.397 137.451 397.992 158.782C439.587 180.113 360.663 217.797 360.663 217.797C360.663 217.797 410.435 214.242 423.945 229.885C437.454 245.527 417.545 256.548 417.545 256.548C417.545 256.548 470.161 249.794 483.316 275.391C496.47 300.988 457.007 322.319 457.007 322.319Z" fill="#E8E8E8" stroke="black" stroke-width="3"/>
<path d="M-3.38385 321.963V33.7333C-3.38385 33.7333 56.9857 -20.4521 125.25 12.7877C193.514 46.0275 175.867 96.1147 175.867 96.1147C175.867 96.1147 224.163 53.768 280.353 96.1147C332.271 135.242 311.242 193.805 307.744 202.484C315.708 191.215 422.594 173.767 401.092 242.279C395.864 258.935 364.406 268.688 364.406 268.688C364.406 268.688 408.522 279.161 412.237 296.008C415.952 312.856 387.161 321.963 387.161 321.963H-3.38385Z" fill="white"/>
<path d="M-3.38385 321.963V33.7333C-3.38385 33.7333 56.9857 -20.4521 125.25 12.7877C193.514 46.0275 175.867 96.1147 175.867 96.1147C175.867 96.1147 224.163 53.768 280.353 96.1147C336.543 138.462 307.287 203.575 307.287 203.575C308.525 192.458 423.303 171.51 401.092 242.279C395.864 258.935 364.406 268.688 364.406 268.688C364.406 268.688 408.522 279.161 412.237 296.008C415.952 312.856 387.161 321.963 387.161 321.963H-3.38385Z" stroke="black" stroke-width="3"/>
<mask id="mask0_47_43" style="mask-type:alpha" maskUnits="userSpaceOnUse" x="-58" y="84" width="343" height="329">
<path d="M113.032 411.842C206.898 411.842 283.063 338.852 283.063 248.727C283.063 158.602 206.898 85.6125 113.032 85.6125C19.1655 85.6125 -57 158.602 -57 248.727C-57 338.852 19.1655 411.842 113.032 411.842Z" fill="#7CAEFF" stroke="black" stroke-width="2"/>
</mask>
<g mask="url(#mask0_47_43)">
<path d="M328.378 221.353C328.378 325.437 242.572 409.842 136.689 409.842C30.8062 409.842 -55 325.437 -55 221.353C-55 117.269 30.8062 32.8633 136.689 32.8633C242.572 32.8633 328.378 117.269 328.378 221.353Z" fill="#6DAAFF" stroke="black" stroke-width="2"/>
<path d="M12.7366 90.0709L-84.9351 135.219L-105.283 159.879C-105.283 159.879 -70.7991 195.535 -37.2451 187.546C-3.69102 179.558 10.3358 223.146 -1.00066 226.642C-12.3371 230.138 -16.2615 244.836 -8.63107 248.295C-1.00066 251.753 15.662 238.07 28.2492 248.295C40.8365 258.52 43.9214 268.049 46.0535 279.571C48.1857 291.093 32.9542 299.1 28.2492 313.253C23.5442 327.407 14.2601 338.872 30.1568 354.755C46.0535 370.637 61.3143 371.051 67.673 381.219C74.0316 391.388 74.0316 427.533 74.0316 427.533L86.749 455.802L101.374 431.743L135.075 400.466C135.075 400.466 151.507 376.257 156.694 354.755C161.882 333.252 169.231 321.618 156.694 310.246C144.158 298.875 132.338 290.398 105.825 284.984C79.3117 279.571 75.2362 270.906 74.0316 258.52C72.8271 246.133 75.3034 226.642 90.5642 226.642C105.825 226.642 127.105 195.535 117.906 187.546C108.708 179.558 120.813 135.463 125.568 121.629C130.324 107.795 98.3331 80.5602 98.3331 80.5602L12.7366 90.0709Z" fill="#2BA019" stroke="black" stroke-width="2"/>
<path d="M265.632 138.239L219.375 83.7684L199.921 154.234C199.921 154.234 195.598 172.391 202.515 190.116C209.432 207.84 167.499 213.892 173.551 229.455C179.603 245.018 199.489 241.128 209.432 229.455C219.375 217.783 241.423 207.408 245.314 213.892C249.204 220.377 238.397 219.945 240.558 229.455C242.72 238.966 294.596 224.268 294.596 224.268L265.632 138.239Z" fill="#2BA019" stroke="black" stroke-width="2"/>
<path d="M186.321 203.466C185.456 206.06 181.133 210.815 175.946 208.221C170.758 205.627 173.352 196.117 175.946 192.226C178.539 188.335 172.055 184.012 167.3 178.392C162.544 172.772 167.3 171.043 172.487 169.746C177.675 168.449 173.784 177.095 180.269 182.715C186.753 188.335 187.186 200.872 186.321 203.466Z" fill="#2BA019" stroke="black" stroke-width="2"/>
<path d="M288.548 302.333V248.727C288.548 248.727 267.365 243.539 254.396 248.727C241.426 253.915 236.239 253.482 220.243 257.373C204.248 261.264 209.003 262.561 205.545 279.421C202.087 296.281 215.056 304.927 220.243 312.708C225.431 320.49 233.213 333.891 225.431 345.131C217.649 356.371 220.243 392.685 220.243 392.685L238.833 381.877L288.548 302.333Z" fill="#2BA019" stroke="black" stroke-width="2"/>
<path d="M200.79 264.29C199.925 263.425 198.196 264.29 198.196 266.019C198.196 267.749 198.196 269.91 196.034 272.504C193.873 275.098 202.086 272.936 200.79 270.775C199.493 268.613 201.654 265.155 200.79 264.29Z" fill="#2BA019" stroke="black" stroke-width="2"/>
</g>
</svg>
