<svg width="571" height="148" viewBox="0 0 571 148" fill="none" xmlns="http://www.w3.org/2000/svg">
<path fill-rule="evenodd" clip-rule="evenodd" d="M26.7161 130.007C40.4807 130.007 42.9408 124.523 42.9408 124.523C42.9408 124.523 60.1471 95.0699 55.4882 79.5203C62.4948 89.6854 75.6512 98.3878 86.9433 78.2773C86.9433 78.2773 80.1213 123.228 95.539 130.007C110.957 136.786 115.421 123.228 115.421 123.228C115.421 123.228 123.391 145.071 146.774 137.539C166.437 131.205 170.56 125.404 171.374 123.719C169.559 129.32 181.755 129.963 183.072 129.963C184.426 129.963 188.488 129.963 191.872 125.883C193.831 123.521 197.55 120.453 196.904 116.82C198.942 122.924 200.404 130.914 214.832 130.007C226.482 129.274 232.521 125.129 235.587 121.598C235.008 123.105 234.714 124.667 235.198 125.883C236.552 129.283 238.583 130.007 243.999 130.007C249.414 130.007 250.091 123.228 250.091 123.228C250.091 123.228 278.145 130.569 290.537 119.225C290.537 119.225 301.944 130.846 312.02 128.03C322.095 125.215 325.714 119.225 325.714 119.225C326.101 119.405 326.475 119.581 326.841 119.752C332.488 122.398 335.979 124.035 349.419 123.228C349.419 123.228 348.409 130.007 353.243 137.539C358.076 145.071 370.941 146.534 376.683 143.565C382.425 140.596 384.595 133.773 384.595 133.773C384.595 133.773 389.184 143.565 406.772 143.565C424.36 143.565 435.066 119.225 435.066 119.225C435.066 119.225 445.057 138.314 457.242 137.539C460.336 137.342 463.021 135.866 465.305 133.773C483.073 144.478 536.672 138.938 556.653 133.773C576.634 128.608 566.028 111.769 556.653 105.905C547.278 100.04 533.061 97.9995 521.553 100.04C560.985 73.5121 585.864 25.6775 551.339 16.2734C516.814 6.86939 478.73 13.5389 471.88 22.2961C471.88 22.2961 466.042 9.58969 451.889 11.001C437.736 12.4124 438.287 24.5513 438.287 24.5513C438.287 24.5513 435.066 6.86938 424.36 3.469C413.654 0.0686224 406.772 16.2734 406.772 16.2734C406.772 16.2734 408.301 3.469 394.537 3.469C380.772 3.469 373.125 16.2734 373.125 16.2734C353.243 8.45146 335.665 13.4339 324.557 24.5513C322.526 16.2734 310.42 16.2734 310.42 16.2734C295.609 15.8196 287.047 23.8217 286.981 25.6023C283.317 19.2495 259.973 3.25083 249.171 17.6263C247.802 17.5723 247.191 17.0371 246.548 16.4741C245.418 15.4849 244.191 14.4101 238.583 15.7104C229.782 17.7506 234.714 28.3247 234.714 28.3247C234.714 28.3247 225.282 10.9498 214.832 16.2734C204.382 21.597 203.362 32.0907 203.362 32.0907C203.362 32.0907 196.611 13.9336 186.538 16.2734C176.465 18.6133 178.333 32.0907 178.333 32.0907C178.333 32.0907 176.597 19.1107 160.538 16.2734C150.367 14.4763 147.558 21.3014 146.866 26.5472C146.087 22.2836 142.929 17.0002 132.245 16.2734C115.455 15.1313 115.316 29.438 115.404 31.7715C115.239 29.818 113.519 19.4544 95.539 16.2734C77.1282 13.0164 71.8718 23.2418 70.8616 33.6266C70.0295 24.791 58.012 2.5529 30.5396 16.2734C30.5396 16.2734 15.8099 28.3247 8.36333 51.6739C0.916752 75.0232 1.51392 92.1714 8.36333 119.082C8.36333 119.082 12.9515 130.007 26.7161 130.007ZM496.011 104.466C493.115 104.235 478.133 103.426 476.59 109.549C479.781 89.6278 477.607 63.0522 475.265 44.4854C488.419 55.5028 513.726 53.5115 530.87 42.7896C503.889 64.7877 488.487 103.605 495.199 104.376C495.54 104.415 495.809 104.445 496.011 104.466Z" fill="#FDFF6C"/>
<path d="M52.1813 49.5603C49.4735 59.0521 50.8274 71.1527 52.1813 74.043M70.4593 35.9588C71.9463 47.7279 71.1363 51.5201 71.1363 51.5201M70.4593 35.9588C70.6654 35.3706 70.9597 34.6687 70.8616 33.6266M70.4593 35.9588C70.4904 35.1337 70.7809 34.4565 70.8616 33.6266M115.184 31.9369C126.442 72.2088 125.862 91.9774 115.421 123.228M115.184 31.9369C115.184 31.9369 115.412 31.978 115.404 31.7715M115.184 31.9369C115.184 31.9369 115.421 31.9781 115.404 31.7715M115.421 123.228C115.421 123.228 110.957 136.786 95.539 130.007C80.1213 123.228 86.9433 78.2773 86.9433 78.2773M115.421 123.228C115.421 123.228 123.391 145.071 146.774 137.539C166.437 131.205 170.56 125.404 171.374 123.719M88.7373 48.1197C91.4452 65.2021 86.9433 78.2773 86.9433 78.2773M86.9433 78.2773C75.6512 98.3878 62.4948 89.6854 55.4882 79.5203M52.1813 74.043C53.6439 75.51 54.8743 77.4714 55.4882 79.5203M52.1813 74.043C52.9878 75.7646 54.2623 77.7418 55.4882 79.5203M146.537 31.9369C140.778 60.763 139.967 76.9245 146.537 105.751M146.537 31.9369C146.537 31.9369 146.466 29.5835 146.866 26.5472M146.537 31.9369C146.537 31.9369 147.42 29.5763 146.866 26.5472M178.333 32.0907C178.333 32.0907 176.597 19.1107 160.538 16.2734C150.367 14.4763 147.558 21.3014 146.866 26.5472M178.333 32.0907C187.106 66.799 172.004 123.008 171.327 123.074M178.333 32.0907C178.333 32.0907 176.465 18.6133 186.538 16.2734C196.611 13.9336 203.362 32.0907 203.362 32.0907M171.327 123.074C171.327 123.074 171.528 123.4 171.374 123.719M171.327 123.074C171.252 123.242 171.426 123.559 171.374 123.719M203.362 32.0907C213.308 50.2018 220.567 76.0924 210.59 94.4526M203.362 32.0907C203.362 32.0907 204.382 21.597 214.832 16.2734C225.282 10.9498 234.714 28.3247 234.714 28.3247M234.714 28.3247C244.601 63.3883 247.422 84.6447 238.346 116.208M234.714 28.3247C234.714 28.3247 229.782 17.7506 238.583 15.7104C244.191 14.4101 245.418 15.4849 246.548 16.4741C247.191 17.0371 247.802 17.5723 249.171 17.6263C259.973 3.25083 283.317 19.2495 286.981 25.6023M238.346 116.208C238.346 116.208 236.626 118.889 235.587 121.598M238.346 116.208C238.346 116.208 238.028 118.785 235.587 121.598M196.904 116.82C196.904 116.82 201.021 89.3439 193.171 69.4865M196.904 116.82C198.942 122.924 200.404 130.914 214.832 130.007C226.482 129.274 232.521 125.129 235.587 121.598M196.904 116.82C197.55 120.453 193.831 123.521 191.872 125.883C188.488 129.963 184.426 129.963 183.072 129.963C181.755 129.963 169.559 129.32 171.374 123.719M286.911 25.7577C286.911 25.7577 300.743 38.5548 304.688 70.6427C308.633 102.731 290.537 119.225 290.537 119.225M286.911 25.7577C286.793 25.7049 286.975 25.7527 286.981 25.6023M286.911 25.7577C286.861 25.6574 287.042 25.7081 286.981 25.6023M290.537 119.225C290.537 119.225 301.944 130.846 312.02 128.03C322.095 125.215 325.714 119.225 325.714 119.225M290.537 119.225C278.145 130.569 250.091 123.228 250.091 123.228C250.091 123.228 249.414 130.007 243.999 130.007C238.583 130.007 236.552 129.283 235.198 125.883C234.714 124.667 235.008 123.105 235.587 121.598M265.424 57.0412C270.198 70.1538 269.539 78.0031 265.424 92.4417M324.557 24.5513C322.526 16.2734 310.42 16.2734 310.42 16.2734C295.609 15.8196 287.047 23.8217 286.981 25.6023M324.557 24.5513C335.665 13.4339 353.243 8.45146 373.125 16.2734M324.557 24.5513C334.711 51.7544 335.388 96.6394 325.714 119.225M325.714 119.225C326.101 119.405 326.475 119.581 326.841 119.752C332.488 122.398 335.979 124.035 349.419 123.228C349.419 123.228 348.409 130.007 353.243 137.539C358.076 145.071 370.941 146.534 376.683 143.565C382.425 140.596 384.595 133.773 384.595 133.773M373.125 16.2734C408.79 35.8727 380.535 119.072 380.535 119.072C380.535 119.072 384.595 123.228 384.595 133.773M373.125 16.2734C373.125 16.2734 380.772 3.469 394.537 3.469C408.301 3.469 406.772 16.2734 406.772 16.2734M384.595 133.773C384.595 133.773 389.184 143.565 406.772 143.565C424.36 143.565 435.066 119.225 435.066 119.225M353.006 59.0521C361.658 71.5991 361.553 78.8036 358.359 90.6866M406.772 16.2734C406.772 16.2734 418.418 70.1747 406.535 94.4526M406.772 16.2734C406.772 16.2734 413.654 0.0686224 424.36 3.469C435.066 6.86938 438.287 24.5513 438.287 24.5513M438.287 24.5513C445.202 58.5795 440.556 85.1972 435.066 119.225M438.287 24.5513C438.287 24.5513 437.736 12.4124 451.889 11.001C466.042 9.58969 471.88 22.2961 471.88 22.2961M435.066 119.225C435.066 119.225 445.057 138.314 457.242 137.539M471.88 22.2961C478.73 13.5389 516.814 6.86939 551.339 16.2734C585.864 25.6775 560.985 73.5121 521.553 100.04C533.061 97.9995 547.278 100.04 556.653 105.905C566.028 111.769 576.634 128.608 556.653 133.773C536.672 138.938 483.073 144.478 465.305 133.773M471.88 22.2961C471.88 22.2961 473.615 31.4025 475.265 44.4854M475.028 115.993C475.028 115.993 469.427 136.764 457.242 137.539M475.028 115.993C471.69 125.61 469.7 129.389 465.305 133.773M475.028 115.993L476.239 110.087C476.259 109.847 476.534 109.77 476.59 109.549M475.028 115.993C475.546 113.897 476.222 111.844 476.59 109.549M457.242 137.539C460.336 137.342 463.021 135.866 465.305 133.773M495.199 104.376C488.487 103.605 503.889 64.7877 530.87 42.7896M495.199 104.376C495.54 104.415 495.809 104.445 496.011 104.466M495.199 104.376C496.693 104.548 496.795 104.528 496.011 104.466M475.265 44.4854C477.607 63.0522 479.781 89.6278 476.59 109.549M475.265 44.4854C488.419 55.5028 513.726 53.5115 530.87 42.7896M70.8616 33.6266C70.0295 24.791 58.012 2.5529 30.5396 16.2734C30.5396 16.2734 15.8099 28.3247 8.36333 51.6739C0.916752 75.0232 1.51392 92.1714 8.36333 119.082C8.36333 119.082 12.9515 130.007 26.7161 130.007C40.4807 130.007 42.9408 124.523 42.9408 124.523C42.9408 124.523 60.1471 95.0699 55.4882 79.5203M70.8616 33.6266C71.8718 23.2418 77.1282 13.0164 95.539 16.2734C113.519 19.4544 115.239 29.818 115.404 31.7715M115.404 31.7715C115.316 29.438 115.455 15.1313 132.245 16.2734C142.929 17.0002 146.087 22.2836 146.866 26.5472M496.011 104.466C493.115 104.235 478.133 103.426 476.59 109.549M530.87 42.7896C533.109 41.3897 534.971 39.6871 536.886 37.9991C534.74 39.4349 532.891 41.142 530.87 42.7896Z" stroke="black" stroke-width="6" stroke-linecap="round"/>
</svg>
