<svg width="55" height="46" viewBox="0 0 55 46" fill="none" xmlns="http://www.w3.org/2000/svg">
<path d="M46.2817 32.6495C45.0131 36.5608 42.5672 39.4805 38.9758 41.4513C35.347 43.4425 30.4786 44.5 24.3652 44.5C11.7211 44.5 1.5 33.6895 1.5 22.5891C1.5 17.1856 4.51866 11.9276 9.28863 7.96964C14.0501 4.01871 20.4058 1.5 26.754 1.5C30.392 1.5 34.6348 3.02187 38.2912 5.62809C41.9439 8.2316 44.8445 11.7977 45.9769 15.7111C46.3832 17.1149 47.6072 18.3141 49.2458 18.4184L52.7557 18.6419C53.2114 18.671 53.3929 19.2453 53.0368 19.531L42.7425 27.788C42.5607 27.9337 42.3024 27.9347 42.1196 27.7903L31.2647 19.214C30.8926 18.9201 31.1005 18.3217 31.5746 18.3217H35.3865C36.6591 18.3217 37.7556 17.6489 38.3342 16.665C38.9306 15.6508 38.9629 14.307 38.1135 13.2004C36.4999 11.0983 34.5061 9.78306 32.1163 9.12155C29.77 8.47207 27.1139 8.47216 24.1723 8.85354C20.0215 9.3917 16.5894 10.4479 14.281 12.6992C11.9059 15.0155 10.9918 18.3158 11.234 22.6724C11.4594 26.7256 12.4922 30.2 14.6962 32.6726C16.9392 35.189 20.1939 36.4457 24.3652 36.4457C27.8287 36.4457 30.5534 36.1277 32.6 35.3896C34.7016 34.6316 36.1777 33.392 36.9102 31.5666C37.0571 31.2006 37.2928 30.8972 37.5308 30.7215C37.7533 30.5572 37.9132 30.5427 38.0324 30.5676L45.9517 32.2191C46.0926 32.2485 46.1944 32.3295 46.2491 32.4168C46.2991 32.4966 46.3071 32.5714 46.2817 32.6495Z" fill="white" stroke="black" stroke-width="3"/>
</svg>
