<svg width="112" height="92" viewBox="0 0 112 92" fill="none" xmlns="http://www.w3.org/2000/svg">
<path d="M98.2867 36.7756L98.0315 35.3533C96.3958 26.2406 90.2249 17.8917 82.1553 11.782C74.0831 5.67037 64.3713 2 56 2C42.4201 2 28.8623 7.3494 18.7102 15.7231C8.54585 24.1068 2 35.3369 2 47C2 70.5203 23.6955 90 51 90C77.4613 90 94.3468 79.2693 99.4337 61.5H88.5C88.4997 61.5 88.4995 61.5 88.4995 61.5L98.2867 36.7756ZM98.2867 36.7756L99.7172 36.9799M98.2867 36.7756L99.7172 36.9799M99.7172 36.9799L109.357 38.357L92.5717 52.7998L74.6091 35.6015L84.2376 36.615C85.77 36.7763 87.1455 36.0667 87.9114 34.9257C88.6926 33.7619 88.8159 32.1692 87.9271 30.8008C84.1264 24.9496 78.0699 19.8327 71.2915 16.3934C64.5178 12.9565 56.8375 11.1023 49.7444 12.0164C40.8258 13.1658 31.9466 17.3134 25.3941 23.4376C18.8333 29.5695 14.483 37.8139 15.0031 47.1117C15.493 55.87 20.3591 63.5762 27.0271 69.2969C33.6971 75.0194 42.3329 78.9062 50.7459 79.9838C59.7742 81.1401 68.4447 79.0711 75.155 75.5817C81.7613 72.1464 86.8804 67.1015 88.1815 61.967C88.227 61.7877 88.3218 61.642 88.4113 61.5598M99.7172 36.9799L88.4113 61.5598M88.4113 61.5598C88.4523 61.5222 88.4816 61.5073 88.493 61.5025M88.4113 61.5598L88.493 61.5025M88.493 61.5025C88.4967 61.5009 88.4989 61.5003 88.4999 61.5L88.493 61.5025Z" fill="white" stroke="black" stroke-width="4"/>
</svg>
